<?xml version="1.0" encoding="iso-8859-1"?>
<!-- Generator: Adobe Illustrator 19.0.0, SVG Export Plug-In . SVG Version: 6.00 Build 0)  -->
<svg version="1.1" id="Capa_1" xmlns="http://www.w3.org/2000/svg" xmlns:xlink="http://www.w3.org/1999/xlink" x="0px" y="0px"
	 viewBox="0 0 512 512" style="enable-background:new 0 0 512 512;" xml:space="preserve">
<g>
	<g>
		<path d="M256,0c-17.396,0-31.548,14.152-31.548,31.548S238.604,63.097,256,63.097s31.548-14.152,31.548-31.548S273.396,0,256,0z
			 M256,48.097c-9.125,0-16.548-7.423-16.548-16.548S246.875,15,256,15s16.548,7.423,16.548,16.548S265.125,48.097,256,48.097z"/>
	</g>
</g>
<g>
	<g>
		<path d="M31.549,224.452C14.153,224.452,0,238.604,0,256s14.152,31.548,31.548,31.548c17.396,0,31.549-14.152,31.549-31.548
			S48.945,224.452,31.549,224.452z M31.549,272.548C22.424,272.548,15,265.125,15,256s7.423-16.548,16.548-16.548
			S48.097,246.875,48.097,256S40.674,272.548,31.549,272.548z"/>
	</g>
</g>
<g>
	<g>
		<path d="M480.452,224.452c-17.396,0-31.548,14.152-31.548,31.548s14.152,31.548,31.548,31.548S512,273.396,512,256
			S497.848,224.452,480.452,224.452z M480.452,272.548c-9.125,0-16.548-7.423-16.548-16.548s7.423-16.548,16.548-16.548
			S497,246.875,497,256S489.577,272.548,480.452,272.548z"/>
	</g>
</g>
<g>
	<g>
		<path d="M256,448.903c-17.396,0-31.548,14.152-31.548,31.548S238.604,512,256,512s31.548-14.152,31.548-31.548
			S273.396,448.903,256,448.903z M256,497c-9.125,0-16.548-7.423-16.548-16.548s7.423-16.548,16.548-16.548
			s16.548,7.423,16.548,16.548S265.125,497,256,497z"/>
	</g>
</g>
<g>
	<g>
		<path d="M480.641,198.005c-21.046-81.751-84.905-145.607-166.656-166.649c-4.011-1.033-8.101,1.382-9.133,5.394
			c-1.033,4.012,1.382,8.101,5.393,9.133c76.46,19.68,136.186,79.403,155.869,155.862c0.871,3.384,3.918,5.632,7.258,5.632
			c0.619,0,1.248-0.077,1.875-0.239C479.259,206.105,481.673,202.016,480.641,198.005z"/>
	</g>
</g>
<g>
	<g>
		<path d="M207.149,36.751c-1.032-4.012-5.124-6.427-9.133-5.394C116.26,52.4,52.4,116.26,31.357,198.015
			c-1.033,4.012,1.382,8.101,5.393,9.133c0.627,0.162,1.256,0.239,1.875,0.239c3.34,0,6.387-2.249,7.258-5.632
			c19.681-76.463,79.408-136.19,155.872-155.871C205.766,44.852,208.181,40.763,207.149,36.751z"/>
	</g>
</g>
<g>
	<g>
		<path d="M201.758,466.118C125.3,446.439,65.575,386.721,45.888,310.266c-1.033-4.012-5.124-6.423-9.133-5.393
			c-4.011,1.033-6.426,5.122-5.393,9.133c21.049,81.746,84.908,145.598,166.657,166.638c0.627,0.162,1.256,0.239,1.875,0.239
			c3.34,0,6.387-2.248,7.258-5.632C208.185,471.239,205.77,467.15,201.758,466.118z"/>
	</g>
</g>
<g>
	<g>
		<path d="M475.25,304.852c-4.011-1.033-8.101,1.382-9.133,5.394c-19.681,76.464-79.408,136.19-155.871,155.872
			c-4.011,1.032-6.426,5.121-5.394,9.133c0.871,3.384,3.917,5.632,7.258,5.632c0.619,0,1.248-0.077,1.875-0.239
			C395.74,459.6,459.6,395.74,480.643,313.984C481.676,309.973,479.261,305.884,475.25,304.852z"/>
	</g>
</g>
<g>
	<g>
		<path d="M224.297,161.128l-7.014-14.028c-1.852-3.705-6.356-5.208-10.062-3.354c-3.705,1.852-5.207,6.357-3.354,10.062
			l7.014,14.028c1.314,2.628,3.962,4.147,6.714,4.147c1.127,0,2.271-0.255,3.348-0.793
			C224.648,169.338,226.15,164.833,224.297,161.128z"/>
	</g>
</g>
<g>
	<g>
		<path d="M294.988,170.078l-3.66-3.339c-3.06-2.791-7.803-2.574-10.596,0.485c-2.792,3.06-2.574,7.804,0.485,10.596l3.661,3.34
			c1.438,1.312,3.249,1.959,5.053,1.959c2.035,0,4.063-0.823,5.542-2.445C298.265,177.614,298.047,172.87,294.988,170.078z"/>
	</g>
</g>
<g>
	<g>
		<path d="M357.301,154.187c-56.058-56.057-147.27-56.058-203.328,0c-51.52,51.52-56.333,133.465-11.195,190.612
			c2.568,3.25,7.284,3.803,10.535,1.237c3.25-2.568,3.804-7.284,1.237-10.535c-17.299-21.901-26.398-47.87-27.539-74.03
			l12.492,14.723c3.058,3.603,6.957,6.52,11.277,8.433l30.682,13.594l-8.807,12.926c-3.773,5.539-3.073,12.999,1.667,17.74
			l17.396,17.396v21.298c-5.426-3.118-10.687-6.661-15.731-10.644c-3.251-2.566-7.967-2.013-10.534,1.237
			c-2.568,3.25-2.014,7.967,1.236,10.535c26.212,20.704,57.637,30.897,88.954,30.897c36.96,0,73.769-14.204,101.658-42.092
			C413.359,301.456,413.359,210.244,357.301,154.187z M272.117,128.194l-1.873,11.579c-0.322,1.994-1.346,3.814-2.881,5.125
			l-16.958,14.48l-11.066-31.208C250.219,126.794,261.24,126.802,272.117,128.194z M149.76,258.239l-2.186,4.281l-19.637-23.143
			c3.516-27.38,15.817-53.758,36.644-74.584c5.07-5.07,10.466-9.619,16.113-13.665c0.898,1.237,1.455,2.692,1.591,4.262
			c0.202,2.341-0.541,4.602-2.092,6.367l-11.53,13.121c-3.086,3.512-4.417,8.171-3.651,12.784s3.531,8.592,7.587,10.918l6.223,3.569
			c3.892,2.232,8.557,2.67,12.798,1.202c4.24-1.469,7.635-4.699,9.312-8.863l0.879-2.182c0.037-0.092,0.106-0.263,0.384-0.315
			c0.28-0.054,0.404,0.083,0.472,0.155l10.863,11.607c0.181,0.193,0.187,0.49,0.014,0.69l-38.226,44.173
			c-0.089,0.103-0.213,0.166-0.349,0.177l-12.657,1.038C156.915,250.273,152.223,253.416,149.76,258.239z M206.719,374.946v-31.771
			c0-1.989-0.79-3.897-2.197-5.303l-18.988-18.988l12.883-18.91c0.156-0.229,0.464-0.294,0.7-0.148l35.015,21.749
			c3.711,2.305,5.081,7.012,3.187,10.948l-21.956,45.62C212.454,377.184,209.57,376.12,206.719,374.946z M230.129,382.05
			l20.706-43.022c5.225-10.856,1.447-23.837-8.788-30.195l-35.015-21.749c-4.756-2.954-10.472-3.033-15.14-0.69l-32.366-14.302
			l3.591-7.032c0.081-0.158,0.24-0.266,0.417-0.28l12.658-1.038c4.074-0.334,7.79-2.22,10.466-5.311l38.227-44.173
			c5.209-6.02,5.036-14.943-0.404-20.756l-10.863-11.607c-3.64-3.89-8.941-5.626-14.177-4.65c-5.236,0.978-9.552,4.512-11.544,9.454
			l-0.878,2.182c-0.024,0.06-0.088,0.218-0.31,0.295c-0.224,0.077-0.371-0.008-0.426-0.04l-6.223-3.569
			c-0.063-0.036-0.212-0.122-0.252-0.363c-0.04-0.241,0.073-0.37,0.122-0.425l11.53-13.121c4.278-4.868,6.326-11.104,5.768-17.561
			c-0.346-4.005-1.668-7.754-3.826-10.994c9.865-5.44,20.298-9.49,31.009-12.149l13.517,38.118c1.275,3.596,4.236,6.332,7.922,7.318
			c0.989,0.265,1.996,0.395,2.997,0.395c2.726,0,5.4-0.963,7.521-2.775l20.735-17.707c4.236-3.618,7.059-8.639,7.948-14.137
			l1.814-11.212c14.642,3.635,28.764,9.871,41.627,18.704l-9.54,13.924c-2.341,3.417-1.469,8.085,1.948,10.426
			c1.296,0.888,2.772,1.313,4.232,1.313c2.391,0,4.741-1.14,6.194-3.261l9.033-13.184c2.16,1.89,4.277,3.856,6.336,5.915
			c1.68,1.682,3.302,3.403,4.877,5.157l-41.58,22.231c-4.751,2.541-7.804,7.266-8.165,12.641l-0.754,11.2l-5.479,9.517
			c-2.067,3.59-0.833,8.175,2.757,10.242c0.794,0.458,1.638,0.74,2.491,0.884c-4.036,1.919-7.45,4.954-9.853,8.824l-11.534,18.571
			c-4.325,6.963-4.695,15.822-0.965,23.122l8.91,17.441c3.09,6.049,9.668,9.361,16.368,8.247l13.996-2.333
			c0.054-0.009,0.218-0.036,0.394,0.096c0.177,0.132,0.197,0.297,0.203,0.352l6.442,53.5
			C296.439,382.559,262.366,388.562,230.129,382.05z M313.147,225.112l18.352-2.875c2.001-0.312,4.05,0.096,5.775,1.152
			l15.109,9.246l3.484,9.615l-18.25-1.46c-0.144-0.012-0.277-0.084-0.366-0.198l-2.622-3.386c-3.795-4.9-10.125-7.072-16.127-5.529
			l-11.046,2.836c0.429-0.44,0.815-0.933,1.136-1.49L313.147,225.112z M346.695,346.907c-2.587,2.587-5.264,5.035-8.013,7.358
			l-5.428-45.075c-0.504-4.186-2.729-8.037-6.103-10.564c-3.374-2.527-7.693-3.579-11.853-2.886l-13.996,2.333
			c-0.223,0.037-0.441-0.073-0.544-0.274l-8.911-17.442c-1.352-2.646-1.218-5.858,0.35-8.383l11.534-18.571
			c1.166-1.877,2.986-3.213,5.126-3.763l13.375-3.434c0.2-0.053,0.411,0.021,0.537,0.184l2.622,3.386
			c2.667,3.446,6.688,5.621,11.031,5.968l26.032,2.083l18.008,29.874C374.836,309.911,363.32,330.282,346.695,346.907z
			 M373.69,247.41l-5.739-15.84l2.877-1.308c3.771-1.714,5.438-6.16,3.724-9.931c-1.713-3.771-6.16-5.438-9.931-3.724l-5.562,2.528
			l-13.958-8.541c-4.757-2.911-10.413-4.038-15.924-3.176l-12.625,1.978l0.24-3.567c0.012-0.179,0.114-0.336,0.271-0.42
			l44.019-23.535c15.161,21.513,23.33,47.118,23.33,73.978c0,2.962-0.106,5.91-0.304,8.84L373.69,247.41z"/>
	</g>
</g>
<g>
</g>
<g>
</g>
<g>
</g>
<g>
</g>
<g>
</g>
<g>
</g>
<g>
</g>
<g>
</g>
<g>
</g>
<g>
</g>
<g>
</g>
<g>
</g>
<g>
</g>
<g>
</g>
<g>
</g>
</svg>
