<?xml version="1.0"?>
<svg xmlns="http://www.w3.org/2000/svg" xmlns:xlink="http://www.w3.org/1999/xlink" version="1.1" id="Layer_1" x="0px" y="0px" viewBox="0 0 512 512" style="enable-background:new 0 0 512 512;" xml:space="preserve" width="512px" height="512px" class=""><g><path d="M0,256c0,31.314,5.633,61.31,15.923,89.043L256,356.174l240.077-11.13C506.368,317.31,512,287.314,512,256  s-5.632-61.31-15.923-89.043L256,155.826l-240.077,11.13C5.633,194.69,0,224.686,0,256z" data-original="#000000"/><path style="fill:#0052B4;" d="M256,0C145.929,0,52.094,69.472,15.923,166.957h480.155C459.906,69.472,366.071,0,256,0z" data-original="#0052B4"/><path style="fill:#FFFFFF" d="M496.077,345.043H15.923C52.094,442.527,145.929,512,256,512S459.906,442.527,496.077,345.043z" data-original="#F0F0F0" class="active-path" data-old_color="#ffffff"/></g> </svg>
